<?xml version="1.0" standalone="no"?>
<!DOCTYPE svg PUBLIC "-//W3C//DTD SVG 20010904//EN"
 "http://www.w3.org/TR/2001/REC-SVG-20010904/DTD/svg10.dtd">
<svg version="1.0" xmlns="http://www.w3.org/2000/svg"
 width="172.000000pt" height="156.000000pt" viewBox="0 0 172.000000 156.000000"
 preserveAspectRatio="xMidYMid meet">

<g transform="translate(0.000000,156.000000) scale(0.100000,-0.100000)"
fill="#000" stroke="none">
<path d="M757 1149 c-8 -13 -82 -175 -163 -359 -82 -184 -158 -345 -171 -357
-14 -15 -34 -23 -57 -23 -19 0 -38 -4 -41 -10 -4 -6 45 -10 140 -10 101 0 144
3 140 11 -4 6 -12 8 -19 6 -19 -7 -56 11 -56 29 0 27 213 526 221 517 4 -4 56
-127 115 -272 71 -174 104 -266 96 -269 -7 -2 -12 -8 -12 -13 0 -5 65 -9 148
-9 98 0 142 3 132 10 -8 5 -27 10 -41 10 -34 0 -71 36 -104 100 -15 29 -85
184 -156 344 -72 160 -136 297 -144 305 -11 11 -15 10 -28 -10z"/>
<path d="M932 1141 c-29 -10 -55 -21 -59 -24 -7 -8 17 -67 27 -67 4 0 10 7 13
14 10 25 69 49 123 49 80 0 119 -31 150 -118 6 -16 9 -12 15 20 4 22 8 59 8
82 l1 41 -50 11 c-75 16 -168 13 -228 -8z"/>
<path d="M1046 713 c125 -277 129 -281 163 -210 45 92 13 200 -82 280 -52 44
-153 117 -161 117 -3 0 34 -84 80 -187z"/>
<path d="M777 584 c-4 -4 -7 -45 -7 -90 0 -94 4 -99 82 -110 41 -6 43 -5 44
20 1 16 -4 27 -15 31 -31 9 -63 52 -80 105 -9 28 -20 48 -24 44z"/>
</g>
</svg>
